<?xml version="1.0" standalone="no"?>
<!DOCTYPE svg PUBLIC "-//W3C//DTD SVG 20010904//EN"
 "http://www.w3.org/TR/2001/REC-SVG-20010904/DTD/svg10.dtd">
<svg version="1.0" xmlns="http://www.w3.org/2000/svg"
 width="500.000000pt" height="500.000000pt" viewBox="0 0 500.000000 500.000000"
 preserveAspectRatio="xMidYMid meet">
<metadata>
Created by potrace 1.14, written by Peter Selinger 2001-2017
</metadata>
<g transform="translate(0.000000,500.000000) scale(0.100000,-0.100000)"
fill="#000000" stroke="none">
<path d="M1180 4401 c-199 -44 -338 -120 -486 -266 -92 -91 -106 -110 -152
-205 -60 -124 -82 -220 -82 -357 1 -211 74 -369 248 -534 107 -101 223 -172
484 -294 351 -164 440 -247 426 -397 -11 -113 -89 -193 -217 -222 -100 -23
-249 -21 -339 4 -131 36 -346 148 -473 245 l-59 46 -20 -33 c-10 -18 -82 -139
-160 -268 l-140 -235 28 -23 c84 -72 328 -205 467 -255 154 -55 296 -79 495
-85 297 -7 469 25 678 129 104 52 135 73 201 137 125 123 193 257 226 446 56
323 -45 555 -336 771 -105 78 -220 141 -434 235 -267 118 -401 205 -440 286
-35 74 2 190 77 244 75 55 220 80 343 60 117 -19 343 -105 437 -166 15 -10 29
-16 31 -14 3 3 61 118 130 256 l125 250 -81 51 c-127 79 -341 156 -522 188
-145 26 -353 29 -455 6z"/>
<path d="M2450 2966 l0 -1406 318 2 317 3 5 550 5 549 389 -504 c214 -278 407
-526 429 -552 l39 -48 399 0 c219 0 399 3 399 8 -1 4 -214 263 -475 577 -261
313 -475 572 -475 576 0 3 26 16 58 28 146 56 307 189 386 318 45 75 90 196
106 282 15 82 15 278 0 361 -58 334 -278 548 -651 636 -65 15 -147 18 -661 21
l-588 4 0 -1405z m905 884 c167 -24 251 -76 303 -188 24 -51 27 -68 27 -172 0
-106 -2 -120 -28 -172 -30 -62 -90 -122 -143 -144 -67 -28 -176 -44 -300 -44
l-124 0 0 365 0 365 98 0 c53 0 129 -5 167 -10z"/>
<path d="M338 864 c-34 -18 -48 -43 -48 -84 0 -45 36 -75 118 -100 101 -29
124 -58 82 -100 -14 -14 -33 -20 -66 -20 -37 0 -51 5 -75 29 -16 16 -29 37
-29 45 0 9 -8 16 -20 16 -18 0 -20 -7 -20 -65 0 -58 2 -65 20 -65 13 0 20 7
20 20 0 20 0 20 33 0 64 -39 177 -18 197 36 26 67 -10 110 -116 142 -78 24
-97 39 -92 74 9 61 119 62 148 1 8 -18 23 -33 33 -33 14 0 17 9 17 60 0 53 -2
60 -20 60 -11 0 -20 -7 -20 -14 0 -13 -4 -13 -35 0 -44 18 -92 17 -127 -2z"/>
<path d="M637 873 c-16 -15 -6 -33 18 -33 l25 0 0 -139 c0 -137 0 -140 -22
-143 -13 -2 -24 -11 -26 -20 -3 -16 5 -18 67 -18 64 0 71 2 71 20 0 15 -7 20
-25 20 -23 0 -25 3 -25 50 l0 50 43 0 c42 0 42 0 77 -68 31 -60 39 -67 68 -70
27 -3 32 0 32 17 0 13 -6 21 -17 21 -12 0 -29 20 -47 55 l-28 54 31 27 c26 21
31 33 31 68 0 83 -51 116 -183 116 -46 0 -87 -3 -90 -7z m207 -54 c32 -25 35
-70 6 -99 -15 -15 -33 -20 -75 -20 l-55 0 0 70 0 70 49 0 c34 0 56 -6 75 -21z"/>
<path d="M1010 860 c0 -13 7 -20 18 -20 15 0 27 -27 62 -142 50 -169 55 -178
80 -178 26 0 34 18 61 140 12 58 25 108 29 113 3 4 17 -41 30 -100 31 -145 35
-153 64 -153 23 0 28 8 56 103 17 56 39 126 48 156 10 34 23 56 34 59 10 2 18
13 18 23 0 17 -8 19 -60 19 -53 0 -60 -2 -60 -20 0 -14 7 -20 21 -20 15 0 19
-5 15 -17 -3 -10 -19 -69 -37 -131 -18 -64 -35 -108 -39 -100 -4 7 -17 58 -29
113 -38 168 -40 175 -60 175 -15 0 -22 -17 -40 -92 -11 -51 -27 -120 -35 -153
-16 -69 -14 -71 -60 88 -31 109 -32 117 -15 117 12 0 19 7 19 20 0 18 -7 20
-60 20 -53 0 -60 -2 -60 -20z"/>
<path d="M1587 873 c-16 -15 -6 -33 18 -33 l25 0 0 -139 c0 -137 0 -140 -22
-143 -13 -2 -24 -11 -26 -20 -3 -16 9 -18 137 -18 l141 0 0 45 c0 38 -3 45
-20 45 -15 0 -20 -7 -20 -25 0 -24 -2 -25 -75 -25 l-75 0 0 60 0 60 65 0 c58
0 65 2 65 20 0 18 -7 20 -65 20 l-65 0 0 60 0 60 74 0 c74 0 75 0 78 -27 2
-17 9 -28 18 -28 11 0 16 13 18 48 l3 47 -134 0 c-73 0 -137 -3 -140 -7z"/>
<path d="M1930 860 c0 -15 7 -20 25 -20 l25 0 0 -140 0 -140 -25 0 c-18 0 -25
-5 -25 -20 0 -19 7 -20 100 -20 148 0 190 23 190 104 0 36 -27 76 -52 76 -6 0
-2 10 10 23 24 25 29 75 11 109 -18 33 -71 48 -169 48 -83 0 -90 -1 -90 -20z
m210 -40 c46 -46 9 -100 -70 -100 l-50 0 0 60 0 60 50 0 c37 0 55 -5 70 -20z
m3 -141 c28 -15 37 -28 37 -56 0 -42 -33 -63 -100 -63 l-60 0 0 65 0 65 51 0
c28 0 60 -5 72 -11z"/>
<path d="M2300 830 c0 -43 3 -50 20 -50 16 0 20 7 20 30 0 29 2 30 45 30 l45
0 0 -140 c0 -133 -1 -140 -20 -140 -13 0 -20 -7 -20 -20 0 -18 7 -20 65 -20
53 0 65 3 65 16 0 9 -9 18 -20 21 -19 5 -20 14 -20 144 l0 139 45 0 c43 0 45
-1 45 -30 0 -23 4 -30 20 -30 17 0 20 7 20 50 l0 50 -155 0 -155 0 0 -50z"/>
<path d="M2680 860 c0 -15 7 -20 25 -20 l25 0 0 -140 0 -140 -25 0 c-18 0 -25
-5 -25 -20 0 -19 7 -20 140 -20 l140 0 0 45 c0 38 -3 45 -20 45 -15 0 -20 -7
-20 -25 0 -24 -2 -25 -75 -25 l-75 0 0 60 0 60 65 0 c58 0 65 2 65 20 0 18 -7
20 -65 20 l-65 0 0 60 0 60 74 0 c74 0 75 0 78 -27 2 -17 9 -28 18 -28 11 0
15 12 15 45 l0 45 -137 3 c-133 2 -138 2 -138 -18z"/>
<path d="M3030 860 c0 -15 6 -20 25 -20 l25 0 0 -140 0 -140 -25 0 c-18 0 -25
-5 -25 -20 0 -18 7 -20 70 -20 63 0 70 2 70 20 0 15 -7 20 -25 20 -23 0 -25 3
-25 50 l0 50 53 0 52 0 35 -68 c31 -60 39 -67 68 -70 27 -3 32 0 32 17 0 14
-6 21 -19 21 -11 0 -23 12 -31 31 -7 17 -24 46 -36 65 -13 19 -19 34 -14 34
17 0 48 60 55 106 5 35 10 44 26 44 14 0 19 6 17 18 -2 13 -15 18 -61 20 -52
3 -57 1 -57 -18 0 -13 7 -20 18 -20 17 0 18 -5 12 -47 -10 -62 -44 -93 -106
-93 l-44 0 0 69 c0 61 2 69 21 74 43 11 14 32 -49 35 -57 3 -62 1 -62 -18z"/>
</g>
</svg>
